<svg version="1.1" id="_x32_" xmlns="http://www.w3.org/2000/svg" x="0" y="0" viewBox="0 0 512 512" style="width:256px;height:256px" xml:space="preserve" opacity="1"><style>.st0{fill:#4b4b4b}</style><path class="st0" d="M397.749 224.857v26.108c-.01 39.105-15.863 74.438-41.566 100.174-25.73 25.702-61.068 41.561-100.18 41.572-39.111-.011-74.449-15.87-100.18-41.572-25.708-25.736-41.567-61.069-41.572-100.174v-26.108h-34.6v26.108c.028 89.441 66.897 163.282 153.286 174.657V512h46.134v-86.378c86.388-11.375 153.246-85.216 153.28-174.657v-26.108h-34.602z" fill="#4b4b4b"/><path class="st0" d="M256.003 340.811c49.592-.033 89.818-40.254 89.851-89.846V89.857C345.821 40.266 305.6.034 256.003 0c-49.597.034-89.818 40.266-89.852 89.857v161.108c.034 49.592 40.26 89.813 89.852 89.846zM200.752 89.857c.006-15.261 6.166-28.98 16.208-39.049 10.069-10.047 23.782-16.196 39.044-16.22 15.262.023 28.974 6.173 39.044 16.22 10.041 10.069 16.202 23.788 16.208 39.049v161.108c-.006 15.261-6.166 28.98-16.208 39.037-10.064 10.036-23.782 16.196-39.044 16.208-15.262-.012-28.98-6.172-39.044-16.208-10.041-10.057-16.202-23.776-16.208-39.037V89.857z" fill="#4b4b4b"/></svg>