<svg version="1.1" id="_x32_" xmlns="http://www.w3.org/2000/svg" x="0" y="0" viewBox="0 0 512 512" style="width:256px;height:256px" xml:space="preserve" opacity="1"><style>.st0{fill:#4b4b4b}</style><path class="st0" d="M243.591 309.362c3.272 4.317 7.678 6.692 12.409 6.692 4.73 0 9.136-2.376 12.409-6.689l89.594-118.094c3.348-4.414 4.274-8.692 2.611-12.042-1.666-3.35-5.631-5.198-11.168-5.198H315.14c-9.288 0-16.844-7.554-16.844-16.84V59.777c0-11.04-8.983-20.027-20.024-20.027h-44.546c-11.04 0-20.022 8.987-20.022 20.027v97.415c0 9.286-7.556 16.84-16.844 16.84h-34.305c-5.538 0-9.503 1.848-11.168 5.198-1.665 3.35-.738 7.628 2.609 12.046l89.595 118.086z" fill="#4b4b4b"/><path class="st0" d="M445.218 294.16v111.304H66.782V294.16H0v152.648c0 14.03 11.413 25.443 25.441 25.443h461.118c14.028 0 25.441-11.413 25.441-25.443V294.16h-66.782z" fill="#4b4b4b"/></svg>