<svg xmlns="http://www.w3.org/2000/svg" viewBox="0 0 512 512" style="width:256px;height:256px"><path d="M465.771 234.587c0-26.914-10.749-51.289-28.142-69.166.629-4.688 1.075-9.437 1.075-14.301 0-54.151-40.625-98.726-93.05-105.14C319.308 17.754 281.874 0 240.206 0 160.476 0 95.853 64.624 95.853 144.361c0 .422.062.821.062 1.236-29.975 20.27-49.686 54.58-49.686 93.494 0 53.346 37.08 97.937 86.842 109.667 10.089 24.69 34.318 42.106 62.636 42.106 10.557 0 20.508-2.486 29.407-6.798V512h77.528v-83.988l30.236-51.657c30.95-2.256 57.097-21.766 68.743-49.033 37.466-14.194 64.15-50.3 64.15-92.735zM260.615 342.229c.66.928 1.343 1.826 2.041 2.724l-3.43 1.396c.499-1.365.982-2.724 1.389-4.12zm24.259 63.173v-40.579a80.772 80.772 0 0023.492 9.622l-23.492 30.957z" fill="#4b4b4b"/></svg>